<mxfile host="app.diagrams.net" modified="2021-03-14T17:38:01.427Z" agent="5.0 (Windows NT 10.0; Win64; x64) AppleWebKit/537.36 (KHTML, like Gecko) Chrome/89.0.4389.82 Safari/537.36" etag="w7-e3iVmSV5y3-YAck8l" version="14.4.8" type="github">
  <diagram name="TelepesFromAszteroidaToAszteroida" id="13e1069c-82ec-6db2-03f1-153e76fe0fe0">
    <mxGraphModel dx="2762" dy="794" grid="1" gridSize="10" guides="1" tooltips="1" connect="1" arrows="1" fold="1" page="1" pageScale="1" pageWidth="1100" pageHeight="850" background="#ffffff" math="0" shadow="0">
      <root>
        <mxCell id="0" />
        <mxCell id="1" parent="0" />
        <mxCell id="8tZX-4wy2sQ4AK6EXETs-19" value="Telepes mozog szomszédos aszteroidára" style="shape=umlFrame;whiteSpace=wrap;html=1;width=160;height=30;" parent="1" vertex="1">
          <mxGeometry x="-1080" y="70" width="670" height="410" as="geometry" />
        </mxCell>
        <mxCell id="8tZX-4wy2sQ4AK6EXETs-2" value="t: Telepes" style="shape=umlLifeline;perimeter=lifelinePerimeter;whiteSpace=wrap;html=1;container=1;collapsible=0;recursiveResize=0;outlineConnect=0;" parent="1" vertex="1">
          <mxGeometry x="-890" y="110" width="100" height="360" as="geometry" />
        </mxCell>
        <mxCell id="8tZX-4wy2sQ4AK6EXETs-3" value="jelenlegi: Aszteroida" style="shape=umlLifeline;perimeter=lifelinePerimeter;whiteSpace=wrap;html=1;container=1;collapsible=0;recursiveResize=0;outlineConnect=0;" parent="1" vertex="1">
          <mxGeometry x="-720" y="110" width="120" height="360" as="geometry" />
        </mxCell>
        <mxCell id="8tZX-4wy2sQ4AK6EXETs-4" value="" style="html=1;points=[];perimeter=orthogonalPerimeter;" parent="8tZX-4wy2sQ4AK6EXETs-3" vertex="1">
          <mxGeometry x="55" y="195" width="10" height="40" as="geometry" />
        </mxCell>
        <mxCell id="8tZX-4wy2sQ4AK6EXETs-5" value="uj: Aszteroida" style="shape=umlLifeline;perimeter=lifelinePerimeter;whiteSpace=wrap;html=1;container=1;collapsible=0;recursiveResize=0;outlineConnect=0;" parent="1" vertex="1">
          <mxGeometry x="-550" y="110" width="100" height="350" as="geometry" />
        </mxCell>
        <mxCell id="8tZX-4wy2sQ4AK6EXETs-6" value="" style="html=1;points=[];perimeter=orthogonalPerimeter;" parent="8tZX-4wy2sQ4AK6EXETs-5" vertex="1">
          <mxGeometry x="45" y="140" width="10" height="150" as="geometry" />
        </mxCell>
        <mxCell id="8tZX-4wy2sQ4AK6EXETs-7" value="2. HajoElhagy (t: Telepes)" style="html=1;verticalAlign=bottom;endArrow=block;entryX=0.733;entryY=0;entryDx=0;entryDy=0;entryPerimeter=0;" parent="1" source="8tZX-4wy2sQ4AK6EXETs-2" target="8tZX-4wy2sQ4AK6EXETs-4" edge="1">
          <mxGeometry x="0.0473" relative="1" as="geometry">
            <mxPoint x="-840" y="210" as="sourcePoint" />
            <mxPoint as="offset" />
          </mxGeometry>
        </mxCell>
        <mxCell id="8tZX-4wy2sQ4AK6EXETs-8" value="" style="html=1;verticalAlign=bottom;endArrow=open;dashed=1;endSize=8;exitX=1.2;exitY=0.987;exitDx=0;exitDy=0;exitPerimeter=0;" parent="1" source="8tZX-4wy2sQ4AK6EXETs-4" edge="1">
          <mxGeometry relative="1" as="geometry">
            <mxPoint x="-825" y="344" as="targetPoint" />
            <mxPoint x="-663" y="252" as="sourcePoint" />
            <Array as="points" />
          </mxGeometry>
        </mxCell>
        <mxCell id="8tZX-4wy2sQ4AK6EXETs-9" value="3. HajoErkezik (t: Telepes)" style="html=1;verticalAlign=bottom;endArrow=block;entryX=0;entryY=0;" parent="1" source="8tZX-4wy2sQ4AK6EXETs-11" target="8tZX-4wy2sQ4AK6EXETs-6" edge="1">
          <mxGeometry relative="1" as="geometry">
            <mxPoint x="-300" y="393.84615384615415" as="sourcePoint" />
          </mxGeometry>
        </mxCell>
        <mxCell id="8tZX-4wy2sQ4AK6EXETs-10" value="" style="html=1;points=[];perimeter=orthogonalPerimeter;" parent="1" vertex="1">
          <mxGeometry x="-840" y="330" width="10" height="30" as="geometry" />
        </mxCell>
        <mxCell id="8tZX-4wy2sQ4AK6EXETs-11" value="" style="html=1;points=[];perimeter=orthogonalPerimeter;" parent="1" vertex="1">
          <mxGeometry x="-840" y="190" width="10" height="240" as="geometry" />
        </mxCell>
        <mxCell id="8tZX-4wy2sQ4AK6EXETs-12" value="1. Mozog(uj: Aszteroida)" style="html=1;verticalAlign=bottom;endArrow=block;entryX=0.067;entryY=0.008;entryDx=0;entryDy=0;entryPerimeter=0;" parent="1" target="8tZX-4wy2sQ4AK6EXETs-11" edge="1">
          <mxGeometry x="-0.0048" relative="1" as="geometry">
            <mxPoint x="-1020" y="192" as="sourcePoint" />
            <mxPoint as="offset" />
          </mxGeometry>
        </mxCell>
        <mxCell id="8tZX-4wy2sQ4AK6EXETs-13" value="" style="html=1;verticalAlign=bottom;endArrow=open;dashed=1;endSize=8;exitX=0;exitY=0.95;" parent="1" source="8tZX-4wy2sQ4AK6EXETs-11" target="8tZX-4wy2sQ4AK6EXETs-18" edge="1">
          <mxGeometry x="-0.1098" y="-55" relative="1" as="geometry">
            <mxPoint x="-1010" y="418" as="targetPoint" />
            <Array as="points" />
            <mxPoint as="offset" />
          </mxGeometry>
        </mxCell>
        <mxCell id="8tZX-4wy2sQ4AK6EXETs-14" value="" style="html=1;verticalAlign=bottom;endArrow=open;dashed=1;endSize=8;exitX=-0.1;exitY=0.993;exitDx=0;exitDy=0;exitPerimeter=0;entryX=1.3;entryY=0.867;entryDx=0;entryDy=0;entryPerimeter=0;" parent="1" source="8tZX-4wy2sQ4AK6EXETs-6" edge="1" target="8tZX-4wy2sQ4AK6EXETs-11">
          <mxGeometry x="-0.0947" relative="1" as="geometry">
            <mxPoint x="-830" y="390" as="targetPoint" />
            <mxPoint x="-510" y="390" as="sourcePoint" />
            <mxPoint as="offset" />
          </mxGeometry>
        </mxCell>
        <mxCell id="8tZX-4wy2sQ4AK6EXETs-15" value="" style="html=1;points=[];perimeter=orthogonalPerimeter;" parent="1" vertex="1">
          <mxGeometry x="-830" y="280" width="10" height="80" as="geometry" />
        </mxCell>
        <mxCell id="8tZX-4wy2sQ4AK6EXETs-16" value="4 : MezoBeallit(uj: Aszteroida)" style="html=1;verticalAlign=bottom;endArrow=block;exitX=0.1;exitY=0.207;exitDx=0;exitDy=0;exitPerimeter=0;entryX=0.7;entryY=0;entryDx=0;entryDy=0;entryPerimeter=0;" parent="1" source="8tZX-4wy2sQ4AK6EXETs-6" target="8tZX-4wy2sQ4AK6EXETs-15" edge="1">
          <mxGeometry relative="1" as="geometry">
            <mxPoint x="-900" y="305" as="sourcePoint" />
          </mxGeometry>
        </mxCell>
        <mxCell id="8tZX-4wy2sQ4AK6EXETs-17" value="" style="html=1;verticalAlign=bottom;endArrow=open;dashed=1;endSize=8;exitX=1.283;exitY=0.994;exitDx=0;exitDy=0;exitPerimeter=0;" parent="1" source="8tZX-4wy2sQ4AK6EXETs-15" target="8tZX-4wy2sQ4AK6EXETs-6" edge="1">
          <mxGeometry relative="1" as="geometry">
            <mxPoint x="-520" y="350" as="targetPoint" />
            <mxPoint x="-810" y="349" as="sourcePoint" />
          </mxGeometry>
        </mxCell>
        <mxCell id="8tZX-4wy2sQ4AK6EXETs-18" value="Player" style="shape=umlLifeline;participant=umlActor;perimeter=lifelinePerimeter;whiteSpace=wrap;html=1;container=1;collapsible=0;recursiveResize=0;verticalAlign=top;spacingTop=36;outlineConnect=0;" parent="1" vertex="1">
          <mxGeometry x="-1030" y="110" width="20" height="350" as="geometry" />
        </mxCell>
        <mxCell id="0uv6YYfTkkUvn_cUK6ZC-1" value="Ezt a Mezo beallitba!" style="shape=callout;whiteSpace=wrap;html=1;perimeter=calloutPerimeter;" parent="1" vertex="1">
          <mxGeometry x="-820" y="510" width="120" height="80" as="geometry" />
        </mxCell>
      </root>
    </mxGraphModel>
  </diagram>
</mxfile>
